<svg xmlns="http://www.w3.org/2000/svg" xmlns:xlink="http://www.w3.org/1999/xlink" width="1080" zoomAndPan="magnify" viewBox="0 0 810 809.999993" height="1080" preserveAspectRatio="xMidYMid meet" version="1.0"><defs><clipPath id="017eef23a2"><path d="M 20.964844 22.554688 L 788.964844 22.554688 L 788.964844 787.554688 L 20.964844 787.554688 Z M 20.964844 22.554688 " clip-rule="nonzero"/></clipPath></defs><g clip-path="url(#017eef23a2)"><path fill="#0ea5e9" d="M 724.613281 787.285156 L 407.703125 787.285156 C 356.667969 787.285156 306.804688 777.28125 259.53125 757.554688 C 213.992188 738.554688 172.867188 711.410156 137.320312 676.902344 C 101.632812 642.253906 73.402344 601.960938 53.402344 557.128906 C 32.523438 510.339844 21.621094 460.777344 20.996094 409.789062 C 20.363281 357.925781 30.011719 307.492188 49.671875 259.886719 C 68.625 214.007812 96.015625 172.730469 131.101562 137.214844 C 166.480469 101.390625 207.855469 73.25 254.085938 53.554688 C 301.953125 33.167969 352.8125 22.828125 405.257812 22.828125 C 440.796875 22.828125 469.609375 51.644531 469.609375 87.191406 C 469.609375 122.742188 440.796875 151.558594 405.257812 151.558594 C 335.988281 151.558594 271.140625 178.597656 222.65625 227.6875 C 174.777344 276.171875 148.855469 340.285156 149.691406 408.222656 C 151.355469 543.917969 269.507812 658.550781 407.703125 658.550781 L 724.613281 658.550781 C 760.152344 658.550781 788.964844 687.367188 788.964844 722.917969 C 788.964844 758.464844 760.152344 787.285156 724.613281 787.285156 Z M 724.613281 787.285156 " fill-opacity="1" fill-rule="nonzero"/></g><path fill="#0284c7" d="M 518.886719 399.652344 C 518.886719 401.472656 518.84375 403.292969 518.753906 405.109375 C 518.664062 406.929688 518.527344 408.742188 518.347656 410.554688 C 518.167969 412.367188 517.945312 414.175781 517.675781 415.976562 C 517.40625 417.777344 517.09375 419.570312 516.734375 421.355469 C 516.378906 423.140625 515.976562 424.917969 515.53125 426.683594 C 515.085938 428.449219 514.597656 430.203125 514.066406 431.945312 C 513.535156 433.6875 512.960938 435.417969 512.339844 437.128906 C 511.722656 438.84375 511.066406 440.542969 510.363281 442.226562 C 509.664062 443.90625 508.921875 445.570312 508.136719 447.21875 C 507.351562 448.863281 506.527344 450.488281 505.664062 452.09375 C 504.800781 453.699219 503.898438 455.285156 502.957031 456.847656 C 502.015625 458.40625 501.035156 459.945312 500.015625 461.460938 C 498.996094 462.972656 497.941406 464.460938 496.851562 465.921875 C 495.757812 467.386719 494.632812 468.820312 493.46875 470.226562 C 492.308594 471.636719 491.109375 473.015625 489.878906 474.363281 C 488.648438 475.710938 487.386719 477.03125 486.089844 478.316406 C 484.792969 479.605469 483.46875 480.859375 482.109375 482.082031 C 480.75 483.304688 479.363281 484.496094 477.949219 485.648438 C 476.53125 486.804688 475.085938 487.925781 473.613281 489.007812 C 472.144531 490.09375 470.644531 491.140625 469.121094 492.152344 C 467.597656 493.164062 466.050781 494.140625 464.476562 495.074219 C 462.90625 496.011719 461.3125 496.90625 459.695312 497.765625 C 458.078125 498.625 456.441406 499.441406 454.785156 500.222656 C 453.128906 501 451.453125 501.738281 449.761719 502.433594 C 448.070312 503.132812 446.359375 503.785156 444.632812 504.398438 C 442.910156 505.011719 441.167969 505.582031 439.414062 506.113281 C 437.660156 506.640625 435.894531 507.125 434.117188 507.570312 C 432.339844 508.011719 430.550781 508.410156 428.753906 508.765625 C 426.957031 509.121094 425.152344 509.429688 423.339844 509.699219 C 421.527344 509.964844 419.710938 510.1875 417.886719 510.367188 C 416.0625 510.546875 414.234375 510.679688 412.402344 510.769531 C 410.574219 510.859375 408.742188 510.902344 406.910156 510.902344 C 405.078125 510.902344 403.246094 510.859375 401.414062 510.769531 C 399.585938 510.679688 397.757812 510.546875 395.933594 510.367188 C 394.109375 510.1875 392.292969 509.964844 390.480469 509.699219 C 388.667969 509.429688 386.859375 509.121094 385.0625 508.765625 C 383.265625 508.410156 381.480469 508.011719 379.699219 507.570312 C 377.921875 507.125 376.15625 506.640625 374.402344 506.113281 C 372.648438 505.582031 370.910156 505.011719 369.183594 504.398438 C 367.460938 503.785156 365.75 503.132812 364.058594 502.433594 C 362.363281 501.738281 360.6875 501 359.03125 500.222656 C 357.375 499.441406 355.738281 498.625 354.125 497.765625 C 352.507812 496.90625 350.914062 496.011719 349.339844 495.074219 C 347.769531 494.140625 346.222656 493.164062 344.699219 492.152344 C 343.175781 491.140625 341.675781 490.09375 340.203125 489.007812 C 338.730469 487.925781 337.289062 486.804688 335.871094 485.648438 C 334.453125 484.496094 333.066406 483.304688 331.710938 482.082031 C 330.351562 480.859375 329.023438 479.605469 327.730469 478.316406 C 326.433594 477.03125 325.167969 475.710938 323.9375 474.363281 C 322.707031 473.015625 321.511719 471.636719 320.347656 470.226562 C 319.1875 468.820312 318.058594 467.386719 316.96875 465.921875 C 315.875 464.460938 314.820312 462.972656 313.804688 461.460938 C 312.785156 459.945312 311.804688 458.40625 310.863281 456.847656 C 309.921875 455.285156 309.015625 453.699219 308.152344 452.09375 C 307.289062 450.488281 306.464844 448.863281 305.683594 447.21875 C 304.898438 445.570312 304.15625 443.90625 303.457031 442.226562 C 302.753906 440.542969 302.09375 438.84375 301.476562 437.128906 C 300.859375 435.417969 300.285156 433.6875 299.753906 431.945312 C 299.222656 430.203125 298.734375 428.449219 298.289062 426.683594 C 297.84375 424.917969 297.441406 423.140625 297.082031 421.355469 C 296.726562 419.570312 296.414062 417.777344 296.144531 415.976562 C 295.875 414.175781 295.648438 412.367188 295.46875 410.554688 C 295.289062 408.742188 295.15625 406.929688 295.066406 405.109375 C 294.976562 403.292969 294.929688 401.472656 294.929688 399.652344 C 294.929688 397.832031 294.976562 396.011719 295.066406 394.191406 C 295.15625 392.375 295.289062 390.558594 295.46875 388.746094 C 295.648438 386.933594 295.875 385.128906 296.144531 383.328125 C 296.414062 381.527344 296.726562 379.734375 297.082031 377.945312 C 297.441406 376.160156 297.84375 374.386719 298.289062 372.621094 C 298.734375 370.851562 299.222656 369.097656 299.753906 367.355469 C 300.285156 365.613281 300.859375 363.886719 301.476562 362.171875 C 302.09375 360.457031 302.753906 358.757812 303.457031 357.078125 C 304.15625 355.394531 304.898438 353.730469 305.683594 352.085938 C 306.464844 350.4375 307.289062 348.8125 308.152344 347.207031 C 309.015625 345.601562 309.921875 344.019531 310.863281 342.457031 C 311.804688 340.894531 312.785156 339.355469 313.804688 337.84375 C 314.820312 336.328125 315.875 334.839844 316.96875 333.378906 C 318.058594 331.917969 319.1875 330.480469 320.347656 329.074219 C 321.511719 327.667969 322.707031 326.289062 323.9375 324.9375 C 325.167969 323.589844 326.433594 322.273438 327.730469 320.984375 C 329.023438 319.695312 330.351562 318.441406 331.710938 317.21875 C 333.066406 315.996094 334.453125 314.808594 335.871094 313.652344 C 337.289062 312.496094 338.730469 311.378906 340.203125 310.292969 C 341.675781 309.207031 343.175781 308.160156 344.699219 307.148438 C 346.222656 306.136719 347.769531 305.164062 349.339844 304.226562 C 350.914062 303.292969 352.507812 302.394531 354.125 301.535156 C 355.738281 300.675781 357.375 299.859375 359.03125 299.082031 C 360.6875 298.300781 362.363281 297.566406 364.058594 296.867188 C 365.75 296.171875 367.460938 295.515625 369.183594 294.902344 C 370.910156 294.289062 372.648438 293.71875 374.402344 293.191406 C 376.15625 292.660156 377.921875 292.175781 379.699219 291.734375 C 381.480469 291.292969 383.265625 290.890625 385.0625 290.539062 C 386.859375 290.183594 388.667969 289.871094 390.480469 289.605469 C 392.292969 289.335938 394.109375 289.113281 395.933594 288.933594 C 397.757812 288.757812 399.585938 288.621094 401.414062 288.535156 C 403.246094 288.445312 405.078125 288.398438 406.910156 288.398438 C 408.742188 288.398438 410.574219 288.445312 412.402344 288.535156 C 414.234375 288.621094 416.0625 288.757812 417.886719 288.933594 C 419.710938 289.113281 421.527344 289.335938 423.339844 289.605469 C 425.152344 289.871094 426.957031 290.183594 428.753906 290.539062 C 430.550781 290.890625 432.339844 291.292969 434.117188 291.734375 C 435.894531 292.175781 437.660156 292.660156 439.414062 293.191406 C 441.167969 293.71875 442.910156 294.289062 444.632812 294.902344 C 446.359375 295.515625 448.070312 296.171875 449.761719 296.867188 C 451.453125 297.566406 453.128906 298.300781 454.785156 299.082031 C 456.441406 299.859375 458.078125 300.675781 459.695312 301.535156 C 461.3125 302.394531 462.90625 303.292969 464.476562 304.226562 C 466.050781 305.164062 467.597656 306.136719 469.121094 307.148438 C 470.644531 308.160156 472.144531 309.207031 473.613281 310.292969 C 475.085938 311.378906 476.53125 312.496094 477.949219 313.652344 C 479.363281 314.808594 480.75 315.996094 482.109375 317.21875 C 483.46875 318.441406 484.792969 319.695312 486.089844 320.984375 C 487.386719 322.273438 488.648438 323.589844 489.878906 324.9375 C 491.109375 326.289062 492.308594 327.667969 493.46875 329.074219 C 494.632812 330.480469 495.757812 331.917969 496.851562 333.378906 C 497.941406 334.839844 498.996094 336.328125 500.015625 337.84375 C 501.035156 339.355469 502.015625 340.894531 502.957031 342.457031 C 503.898438 344.019531 504.800781 345.601562 505.664062 347.207031 C 506.527344 348.8125 507.351562 350.4375 508.136719 352.085938 C 508.921875 353.730469 509.664062 355.394531 510.363281 357.078125 C 511.066406 358.757812 511.722656 360.457031 512.34375 362.171875 C 512.960938 363.886719 513.535156 365.613281 514.066406 367.355469 C 514.597656 369.097656 515.085938 370.851562 515.53125 372.621094 C 515.976562 374.386719 516.378906 376.160156 516.734375 377.945312 C 517.09375 379.734375 517.40625 381.527344 517.675781 383.328125 C 517.945312 385.128906 518.167969 386.933594 518.347656 388.746094 C 518.527344 390.558594 518.664062 392.375 518.753906 394.191406 C 518.84375 396.011719 518.886719 397.832031 518.886719 399.652344 Z M 518.886719 399.652344 " fill-opacity="1" fill-rule="nonzero"/></svg>