<svg xmlns="http://www.w3.org/2000/svg" xmlns:xlink="http://www.w3.org/1999/xlink" width="800" zoomAndPan="magnify" viewBox="0 0 600 135.000003" height="180" preserveAspectRatio="xMidYMid meet" version="1.0"><defs><clipPath id="6b6e1dcfac"><path d="M 7.804688 6 L 128 6 L 128 127 L 7.804688 127 Z M 7.804688 6 " clip-rule="nonzero"/></clipPath></defs><g clip-path="url(#6b6e1dcfac)"><path fill="#0ea5e9" d="M 116.679688 126.101562 L 67.753906 126.101562 C 34.695312 126.101562 7.804688 99.191406 7.804688 66.117188 C 7.804688 33.039062 34.695312 6.144531 67.742188 6.144531 C 73.824219 6.144531 78.753906 11.074219 78.753906 17.160156 C 78.753906 23.246094 73.824219 28.175781 67.742188 28.175781 C 46.835938 28.175781 29.824219 45.195312 29.824219 66.117188 C 29.824219 87.039062 46.835938 104.058594 67.742188 104.058594 L 116.671875 104.058594 C 122.753906 104.058594 127.679688 108.988281 127.679688 115.074219 C 127.679688 121.160156 122.753906 126.089844 116.671875 126.089844 Z M 116.679688 126.101562 " fill-opacity="1" fill-rule="nonzero"/></g><path fill="#0284c7" d="M 84.871094 66.117188 C 84.871094 66.679688 84.84375 67.238281 84.789062 67.796875 C 84.734375 68.355469 84.652344 68.910156 84.542969 69.460938 C 84.433594 70.011719 84.296875 70.554688 84.132812 71.09375 C 83.972656 71.628906 83.78125 72.15625 83.566406 72.675781 C 83.355469 73.195312 83.113281 73.699219 82.847656 74.195312 C 82.585938 74.691406 82.296875 75.171875 81.984375 75.640625 C 81.671875 76.105469 81.339844 76.554688 80.984375 76.988281 C 80.628906 77.421875 80.25 77.839844 79.855469 78.234375 C 79.457031 78.632812 79.042969 79.007812 78.609375 79.367188 C 78.175781 79.722656 77.726562 80.054688 77.257812 80.367188 C 76.792969 80.679688 76.3125 80.96875 75.816406 81.230469 C 75.324219 81.496094 74.816406 81.738281 74.296875 81.953125 C 73.78125 82.167969 73.253906 82.355469 72.714844 82.519531 C 72.179688 82.679688 71.636719 82.816406 71.085938 82.925781 C 70.535156 83.035156 69.980469 83.117188 69.421875 83.171875 C 68.863281 83.226562 68.304688 83.257812 67.742188 83.257812 C 67.183594 83.257812 66.621094 83.226562 66.0625 83.171875 C 65.507812 83.117188 64.953125 83.035156 64.402344 82.925781 C 63.851562 82.816406 63.308594 82.679688 62.769531 82.519531 C 62.234375 82.355469 61.707031 82.167969 61.1875 81.953125 C 60.667969 81.738281 60.164062 81.496094 59.667969 81.230469 C 59.175781 80.96875 58.691406 80.679688 58.226562 80.367188 C 57.761719 80.054688 57.308594 79.722656 56.875 79.367188 C 56.441406 79.007812 56.027344 78.632812 55.632812 78.234375 C 55.234375 77.839844 54.859375 77.421875 54.503906 76.988281 C 54.144531 76.554688 53.8125 76.105469 53.5 75.640625 C 53.1875 75.171875 52.902344 74.691406 52.636719 74.195312 C 52.371094 73.699219 52.132812 73.195312 51.917969 72.675781 C 51.703125 72.15625 51.515625 71.628906 51.351562 71.09375 C 51.1875 70.554688 51.054688 70.011719 50.941406 69.460938 C 50.832031 68.910156 50.75 68.355469 50.695312 67.796875 C 50.640625 67.238281 50.613281 66.679688 50.613281 66.117188 C 50.613281 65.554688 50.640625 64.996094 50.695312 64.4375 C 50.75 63.878906 50.832031 63.324219 50.941406 62.773438 C 51.054688 62.222656 51.1875 61.679688 51.351562 61.140625 C 51.515625 60.605469 51.703125 60.078125 51.917969 59.558594 C 52.132812 59.039062 52.371094 58.53125 52.636719 58.039062 C 52.902344 57.542969 53.1875 57.0625 53.5 56.59375 C 53.8125 56.128906 54.144531 55.675781 54.503906 55.242188 C 54.859375 54.808594 55.234375 54.394531 55.632812 53.996094 C 56.027344 53.601562 56.441406 53.222656 56.875 52.867188 C 57.308594 52.511719 57.761719 52.175781 58.226562 51.867188 C 58.691406 51.554688 59.175781 51.265625 59.667969 51 C 60.164062 50.738281 60.667969 50.496094 61.1875 50.28125 C 61.707031 50.066406 62.234375 49.878906 62.769531 49.714844 C 63.308594 49.550781 63.851562 49.417969 64.402344 49.304688 C 64.953125 49.195312 65.507812 49.113281 66.0625 49.058594 C 66.621094 49.003906 67.183594 48.976562 67.742188 48.976562 C 68.304688 48.976562 68.863281 49.003906 69.421875 49.058594 C 69.980469 49.113281 70.535156 49.195312 71.085938 49.304688 C 71.636719 49.417969 72.179688 49.550781 72.714844 49.714844 C 73.253906 49.878906 73.78125 50.066406 74.296875 50.28125 C 74.816406 50.496094 75.324219 50.738281 75.816406 51 C 76.3125 51.265625 76.792969 51.554688 77.257812 51.867188 C 77.726562 52.175781 78.175781 52.511719 78.609375 52.867188 C 79.042969 53.222656 79.457031 53.601562 79.855469 53.996094 C 80.25 54.394531 80.628906 54.808594 80.984375 55.242188 C 81.339844 55.675781 81.671875 56.128906 81.984375 56.59375 C 82.296875 57.0625 82.585938 57.542969 82.847656 58.039062 C 83.113281 58.53125 83.355469 59.039062 83.566406 59.558594 C 83.78125 60.078125 83.972656 60.605469 84.132812 61.140625 C 84.296875 61.679688 84.433594 62.222656 84.542969 62.773438 C 84.652344 63.324219 84.734375 63.878906 84.789062 64.4375 C 84.84375 64.996094 84.871094 65.554688 84.871094 66.117188 Z M 84.871094 66.117188 " fill-opacity="1" fill-rule="nonzero"/><path fill="#333333" d="M 161.167969 95.6875 L 161.167969 34.351562 L 172.609375 34.351562 L 172.609375 95.6875 Z M 161.167969 95.6875 " fill-opacity="1" fill-rule="nonzero"/><path fill="#333333" d="M 181.691406 72.847656 C 181.691406 68.945312 182.628906 65.160156 184.5 61.507812 C 186.371094 57.855469 189.023438 55.0625 192.460938 53.144531 C 195.894531 51.21875 199.730469 50.261719 203.96875 50.261719 C 210.507812 50.261719 215.867188 52.449219 220.050781 56.808594 C 224.234375 61.167969 226.324219 66.6875 226.324219 73.351562 C 226.324219 80.015625 224.214844 85.644531 219.996094 90.066406 C 215.773438 94.492188 210.464844 96.695312 204.050781 96.695312 C 200.085938 96.695312 196.304688 95.777344 192.710938 93.933594 C 189.113281 92.097656 186.378906 89.398438 184.507812 85.835938 C 182.636719 82.28125 181.699219 77.949219 181.699219 72.847656 Z M 193.417969 73.46875 C 193.417969 77.875 194.433594 81.253906 196.472656 83.59375 C 198.507812 85.9375 201.023438 87.113281 204.003906 87.113281 C 206.984375 87.113281 209.492188 85.9375 211.519531 83.59375 C 213.535156 81.253906 214.554688 77.847656 214.554688 73.386719 C 214.554688 68.925781 213.546875 65.683594 211.519531 63.34375 C 209.5 61.003906 206.996094 59.828125 204.003906 59.828125 C 201.011719 59.828125 198.507812 61.003906 196.472656 63.34375 C 194.433594 65.683594 193.417969 69.0625 193.417969 73.46875 Z M 193.417969 73.46875 " fill-opacity="1" fill-rule="nonzero"/><path fill="#333333" d="M 232.628906 72.847656 C 232.628906 68.945312 233.566406 65.160156 235.4375 61.507812 C 237.308594 57.855469 239.960938 55.0625 243.398438 53.144531 C 246.832031 51.21875 250.667969 50.261719 254.90625 50.261719 C 261.445312 50.261719 266.804688 52.449219 270.988281 56.808594 C 275.171875 61.167969 277.253906 66.6875 277.253906 73.351562 C 277.253906 80.015625 275.144531 85.644531 270.921875 90.066406 C 266.703125 94.492188 261.390625 96.695312 254.976562 96.695312 C 251.015625 96.695312 247.234375 95.777344 243.636719 93.933594 C 240.042969 92.097656 237.308594 89.398438 235.4375 85.835938 C 233.566406 82.28125 232.628906 77.949219 232.628906 72.847656 Z M 244.355469 73.46875 C 244.355469 77.875 245.371094 81.253906 247.410156 83.59375 C 249.445312 85.9375 251.960938 87.113281 254.941406 87.113281 C 257.921875 87.113281 260.429688 85.9375 262.457031 83.59375 C 264.472656 81.253906 265.492188 77.847656 265.492188 73.386719 C 265.492188 68.925781 264.484375 65.683594 262.457031 63.34375 C 260.4375 61.003906 257.933594 59.828125 254.941406 59.828125 C 251.949219 59.828125 249.445312 61.003906 247.410156 63.34375 C 245.371094 65.683594 244.355469 69.0625 244.355469 73.46875 Z M 244.355469 73.46875 " fill-opacity="1" fill-rule="nonzero"/><path fill="#333333" d="M 285.894531 51.253906 L 296.566406 51.253906 L 296.566406 57.78125 C 297.953125 55.550781 299.824219 53.742188 302.179688 52.347656 C 304.546875 50.949219 307.164062 50.253906 310.042969 50.253906 C 315.0625 50.253906 319.328125 52.273438 322.832031 56.320312 C 326.339844 60.371094 328.089844 65.996094 328.089844 73.222656 C 328.089844 80.445312 326.328125 86.40625 322.796875 90.515625 C 319.265625 94.628906 314.988281 96.6875 309.96875 96.6875 C 307.585938 96.6875 305.421875 96.199219 303.476562 95.226562 C 301.53125 94.253906 299.492188 92.574219 297.347656 90.207031 L 297.347656 112.585938 L 285.90625 112.585938 L 285.90625 51.253906 Z M 297.21875 72.71875 C 297.21875 77.710938 298.179688 81.402344 300.109375 83.777344 C 302.035156 86.167969 304.382812 87.359375 307.152344 87.359375 C 309.925781 87.359375 312.027344 86.265625 313.796875 84.074219 C 315.558594 81.886719 316.4375 78.289062 316.4375 73.296875 C 316.4375 68.640625 315.53125 65.179688 313.714844 62.921875 C 311.898438 60.664062 309.640625 59.535156 306.953125 59.535156 C 304.265625 59.535156 301.832031 60.644531 299.988281 62.859375 C 298.144531 65.078125 297.21875 68.355469 297.21875 72.707031 Z M 297.21875 72.71875 " fill-opacity="1" fill-rule="nonzero"/><path fill="#333333" d="M 348.117188 95.6875 L 336.675781 95.6875 L 336.675781 51.253906 L 347.300781 51.253906 L 347.300781 57.570312 C 349.117188 54.585938 350.761719 52.621094 352.210938 51.667969 C 353.660156 50.722656 355.3125 50.246094 357.15625 50.246094 C 359.761719 50.246094 362.273438 50.988281 364.6875 52.464844 L 361.144531 62.71875 C 359.21875 61.433594 357.429688 60.792969 355.769531 60.792969 C 354.109375 60.792969 352.808594 61.242188 351.695312 62.152344 C 350.585938 63.058594 349.707031 64.695312 349.074219 67.0625 C 348.429688 69.429688 348.117188 74.398438 348.117188 81.953125 Z M 348.117188 95.6875 " fill-opacity="1" fill-rule="nonzero"/><path fill="#888888" d="M 372.246094 82.429688 L 379.496094 81.253906 C 379.898438 84.238281 381.035156 86.523438 382.898438 88.113281 C 384.761719 89.699219 387.359375 90.5 390.699219 90.5 C 394.039062 90.5 396.558594 89.792969 398.191406 88.386719 C 399.828125 86.984375 400.632812 85.332031 400.632812 83.429688 C 400.632812 81.730469 399.917969 80.390625 398.476562 79.410156 C 397.476562 78.738281 394.972656 77.886719 390.980469 76.859375 C 385.605469 75.460938 381.882812 74.257812 379.808594 73.242188 C 377.734375 72.222656 376.15625 70.816406 375.082031 69.019531 C 374.007812 67.21875 373.476562 65.234375 373.476562 63.058594 C 373.476562 61.078125 373.917969 59.25 374.796875 57.5625 C 375.679688 55.871094 376.878906 54.476562 378.402344 53.355469 C 379.542969 52.492188 381.101562 51.757812 383.0625 51.164062 C 385.027344 50.566406 387.148438 50.261719 389.394531 50.261719 C 392.789062 50.261719 395.769531 50.765625 398.332031 51.769531 C 400.890625 52.769531 402.789062 54.128906 404.011719 55.84375 C 405.230469 57.5625 406.074219 59.855469 406.53125 62.730469 L 399.367188 63.730469 C 399.039062 61.445312 398.101562 59.652344 396.542969 58.378906 C 394.980469 57.09375 392.769531 56.449219 389.925781 56.449219 C 386.558594 56.449219 384.15625 57.019531 382.714844 58.167969 C 381.273438 59.3125 380.558594 60.644531 380.558594 62.1875 C 380.558594 63.160156 380.863281 64.042969 381.457031 64.820312 C 382.054688 65.628906 382.992188 66.300781 384.265625 66.832031 C 385 67.109375 387.15625 67.75 390.742188 68.761719 C 395.925781 70.183594 399.542969 71.347656 401.597656 72.25 C 403.644531 73.15625 405.257812 74.46875 406.421875 76.207031 C 407.589844 77.929688 408.175781 80.078125 408.175781 82.648438 C 408.175781 85.21875 407.460938 87.523438 406.039062 89.738281 C 404.617188 91.949219 402.558594 93.667969 399.871094 94.886719 C 397.183594 96.097656 394.148438 96.703125 390.753906 96.703125 C 385.128906 96.703125 380.851562 95.503906 377.910156 93.105469 C 374.964844 90.710938 373.082031 87.148438 372.265625 82.4375 Z M 372.246094 82.429688 " fill-opacity="1" fill-rule="nonzero"/><path fill="#888888" d="M 432.882812 88.957031 L 433.9375 95.613281 C 431.875 96.0625 430.027344 96.28125 428.394531 96.28125 C 425.734375 96.28125 423.671875 95.851562 422.203125 94.988281 C 420.734375 94.125 419.707031 92.988281 419.113281 91.582031 C 418.515625 90.179688 418.210938 87.210938 418.210938 82.695312 L 418.210938 57.128906 L 412.835938 57.128906 L 412.835938 51.273438 L 418.210938 51.273438 L 418.210938 40.265625 L 425.496094 35.75 L 425.496094 51.273438 L 432.863281 51.273438 L 432.863281 57.128906 L 425.496094 57.128906 L 425.496094 83.109375 C 425.496094 85.257812 425.625 86.632812 425.882812 87.25 C 426.140625 87.863281 426.5625 88.351562 427.148438 88.71875 C 427.734375 89.078125 428.570312 89.261719 429.652344 89.261719 C 430.46875 89.261719 431.542969 89.160156 432.875 88.964844 Z M 432.882812 88.957031 " fill-opacity="1" fill-rule="nonzero"/><path fill="#888888" d="M 468.398438 95.6875 L 468.398438 89.160156 C 465.03125 94.179688 460.453125 96.6875 454.671875 96.6875 C 452.121094 96.6875 449.734375 96.183594 447.523438 95.179688 C 445.3125 94.179688 443.671875 92.914062 442.597656 91.398438 C 441.523438 89.882812 440.773438 88.019531 440.339844 85.816406 C 440.039062 84.339844 439.890625 82 439.890625 78.785156 L 439.890625 51.253906 L 447.222656 51.253906 L 447.222656 75.894531 C 447.222656 79.824219 447.367188 82.476562 447.671875 83.84375 C 448.128906 85.828125 449.113281 87.378906 450.609375 88.507812 C 452.101562 89.636719 453.949219 90.207031 456.148438 90.207031 C 458.351562 90.207031 460.414062 89.628906 462.34375 88.46875 C 464.269531 87.3125 465.636719 85.734375 466.433594 83.742188 C 467.230469 81.75 467.636719 78.859375 467.636719 75.058594 L 467.636719 51.253906 L 474.964844 51.253906 L 474.964844 95.6875 Z M 468.398438 95.6875 " fill-opacity="1" fill-rule="nonzero"/><path fill="#888888" d="M 514.492188 95.6875 L 514.492188 90.078125 C 511.746094 94.484375 507.71875 96.6875 502.398438 96.6875 C 498.949219 96.6875 495.785156 95.714844 492.894531 93.757812 C 490.003906 91.804688 487.765625 89.078125 486.175781 85.578125 C 484.589844 82.082031 483.792969 78.050781 483.792969 73.507812 C 483.792969 68.960938 484.507812 65.050781 485.949219 61.433594 C 487.386719 57.816406 489.542969 55.054688 492.425781 53.125 C 495.304688 51.199219 498.515625 50.246094 502.078125 50.246094 C 504.683594 50.246094 507.003906 50.8125 509.039062 51.941406 C 511.078125 53.070312 512.730469 54.539062 514.011719 56.359375 L 514.011719 34.351562 L 521.308594 34.351562 L 521.308594 95.6875 Z M 491.324219 73.515625 C 491.324219 79.207031 492.488281 83.457031 494.828125 86.277344 C 497.160156 89.09375 499.921875 90.5 503.09375 90.5 C 506.269531 90.5 509.023438 89.160156 511.261719 86.460938 C 513.5 83.769531 514.617188 79.65625 514.617188 74.140625 C 514.617188 68.0625 513.480469 63.601562 511.195312 60.753906 C 508.914062 57.910156 506.105469 56.488281 502.765625 56.488281 C 499.425781 56.488281 496.785156 57.855469 494.601562 60.589844 C 492.417969 63.324219 491.324219 67.632812 491.324219 73.515625 Z M 491.324219 73.515625 " fill-opacity="1" fill-rule="nonzero"/><path fill="#888888" d="M 532.859375 43.019531 L 532.859375 34.363281 L 540.1875 34.363281 L 540.1875 43.019531 Z M 532.859375 95.6875 L 532.859375 51.253906 L 540.1875 51.253906 L 540.1875 95.6875 Z M 532.859375 95.6875 " fill-opacity="1" fill-rule="nonzero"/><path fill="#888888" d="M 548.609375 73.46875 C 548.609375 65.246094 550.839844 59.148438 555.289062 55.183594 C 559.003906 51.898438 563.546875 50.246094 568.894531 50.246094 C 574.839844 50.246094 579.703125 52.246094 583.472656 56.246094 C 587.246094 60.25 589.136719 65.777344 589.136719 72.835938 C 589.136719 78.554688 588.300781 83.054688 586.628906 86.332031 C 584.960938 89.609375 582.527344 92.152344 579.34375 93.96875 C 576.152344 95.777344 572.675781 96.6875 568.90625 96.6875 C 562.851562 96.6875 557.960938 94.695312 554.226562 90.699219 C 550.492188 86.71875 548.628906 80.96875 548.628906 73.460938 Z M 556.152344 73.46875 C 556.152344 79.160156 557.363281 83.421875 559.777344 86.25 C 562.1875 89.078125 565.234375 90.488281 568.894531 90.488281 C 572.554688 90.488281 575.554688 89.066406 577.976562 86.222656 C 580.390625 83.375 581.601562 79.042969 581.601562 73.214844 C 581.601562 67.714844 580.390625 63.554688 577.960938 60.726562 C 575.527344 57.902344 572.511719 56.476562 568.894531 56.476562 C 565.28125 56.476562 562.1875 57.882812 559.777344 60.699219 C 557.363281 63.519531 556.152344 67.769531 556.152344 73.460938 Z M 556.152344 73.46875 " fill-opacity="1" fill-rule="nonzero"/></svg>